Coordinates
version=1
nRows=12
nColumns=42
inDegrees=yes

Units are S.I. units (second, meters, Newtons, ...)
If the header above contains a line with 'inDegrees', this indicates whether rotational values are in degrees (yes) or radians (no).

endheader
time	pelvis_tilt	pelvis_list	pelvis_rotation	pelvis_tx	pelvis_ty	pelvis_tz	hip_flexion_r	hip_adduction_r	hip_rotation_r	knee_angle_r	knee_adduction_r	knee_angle_r_beta	ankle_angle_r	subtalar_angle_r	mtp_angle_r	hip_flexion_l	hip_adduction_l	hip_rotation_l	knee_angle_l	knee_adduction_l	knee_angle_l_beta	ankle_angle_l	subtalar_angle_l	mtp_angle_l	lumbar_extension	lumbar_bending	lumbar_rotation	arm_flex_r	arm_add_r	arm_rot_r	elbow_flex_r	pro_sup_r	wrist_flex_r	wrist_dev_r	arm_flex_l	arm_add_l	arm_rot_l	elbow_flex_l	pro_sup_l	wrist_flex_l	wrist_dev_l
      2.19000000	     -0.06143768	      1.64598852	     -3.55321450	      0.08132881	      0.97997805	      0.29273345	      3.93543040	     -9.03365055	      2.89970452	     51.94302154	      7.28193744	      0.90657675	      2.23010937	      3.72412289	     -7.50850658	      6.38962026	      1.88073301	    -11.42593834	      4.99872428	      0.65752645	      0.08724420	      2.33720927	     16.95820781	     -7.50850658	     -6.31704137	     -3.81912517	     -0.70548637	     -2.73375289	    -14.62702471	     14.49356804	     31.84335655	     90.00000001	      0.00000000	      0.00000000	     -4.56246066	    -15.45476127	     16.30597161	     28.17466199	     90.00000001	      0.00000000	      0.00000000
      2.20000000	      0.22012293	      1.39664581	     -3.18679822	      0.09059209	      0.98099845	      0.29091337	      5.10487561	     -8.88617614	      2.76030519	     53.13712465	      7.51615812	      0.92741778	      2.81501012	      3.90250599	     -7.50841959	      5.48109062	      1.73286798	    -11.35181068	      5.04126705	      0.79818006	      0.08798671	      2.64239919	     17.12605132	     -7.50841959	     -6.68870680	     -3.39759118	     -1.28962576	     -3.08301768	    -14.59440214	     14.48674035	     31.72335813	     90.00000001	      0.00000000	      0.00000000	     -3.71786034	    -15.49028039	     16.47619646	     28.38652532	     90.00000001	      0.00000000	      0.00000000
      2.21000000	      0.19195354	      1.45055148	     -2.81232678	      0.10004577	      0.98143166	      0.28922279	      6.71185522	     -8.99090593	      1.51018765	     54.32497385	      6.69154008	      0.94814966	      4.39398287	      6.36953787	     -7.50802961	      4.76031183	      2.01208064	    -10.81778319	      4.73166310	      0.71724659	      0.08258310	      3.20538617	     17.62362916	     -7.50802961	     -6.61614542	     -3.32250431	     -1.68477085	     -3.69521548	    -14.44908386	     14.19913630	     31.60380989	     90.00000001	      0.00000000	      0.00000000	     -2.74074353	    -15.90637170	     18.45852825	     28.52478056	     90.00000001	      0.00000000	      0.00000000
      2.22000000	      0.42318197	      1.22145721	     -2.48816944	      0.10929172	      0.98229388	      0.28752764	      7.87815036	     -8.82506004	      1.35776647	     54.98472814	      6.94710131	      0.95966454	      4.89610300	      6.42047803	     -7.50794962	      3.93064349	      1.89993780	    -10.76066315	      4.79200866	      0.76154565	      0.08363633	      3.55505602	     17.71805984	     -7.50794962	     -6.89954613	     -2.91867767	     -2.17063770	     -4.08438526	    -14.41093756	     14.18338895	     31.45340396	     90.00000001	      0.00000000	      0.00000000	     -1.89124246	    -15.92972666	     18.57248378	     28.75904943	     90.00000001	      0.00000000	      0.00000000
      2.23000000	      0.48406324	      0.98777227	     -2.11736665	      0.11864225	      0.98292624	      0.28601070	      9.13476426	     -8.54807744	      0.96695277	     55.29836469	      6.93154130	      0.96513853	      5.97800708	      6.94346981	     -7.50779806	      3.12512221	      1.83258041	    -10.17715415	      4.52157830	      0.71119730	      0.07891643	      4.28638182	     18.14481287	     -7.50779806	     -6.94769758	     -2.51420881	     -2.54708892	     -4.63475903	    -14.29315514	     14.01331815	     31.26527332	     90.00000001	      0.00000000	      0.00000000	     -0.86726410	    -16.02369857	     19.30257747	     28.68535735	     90.00000001	      0.00000000	      0.00000000
      2.24000000	      0.64305258	      0.90410542	     -1.79017689	      0.12781650	      0.98369131	      0.28445144	     10.25081474	     -8.42755745	      0.84997452	     55.26042798	      7.10867221	      0.96447641	      6.10419340	      7.02013399	     -7.50774124	      2.49044381	      1.87070108	    -10.33676151	      4.76902381	      0.69154947	      0.08323517	      4.39439126	     18.05709105	     -7.50774124	     -7.13675482	     -2.28199700	     -2.99270378	     -5.10086012	    -14.21925737	     14.01942347	     31.17004782	     90.00000001	      0.00000000	      0.00000000	     -0.02260228	    -16.09280174	     19.29229329	     29.04415112	     90.00000001	      0.00000000	      0.00000000
      2.25000000	      0.69129456	      0.58269977	     -1.38733344	      0.13698457	      0.98404300	      0.28284989	     11.48314868	     -8.14000825	      0.32058500	     55.19858260	      7.24174743	      0.96339701	      7.33420742	      7.46481851	     -7.50762449	      1.65915163	      1.72472974	     -9.48933200	      4.39260905	      0.58572728	      0.07666549	      5.28852459	     18.65797997	     -7.50762449	     -7.17227009	     -1.74869273	     -3.32017012	     -5.63718067	    -14.12831734	     13.74601992	     30.97868198	     90.00000001	      0.00000000	      0.00000000	      1.07136929	    -16.13939087	     20.12729799	     28.91037748	     90.00000001	      0.00000000	      0.00000000
      2.26000000	      0.81768036	      0.54787823	     -1.10750503	      0.14582721	      0.98451746	      0.28134881	     12.64540970	     -8.08339870	      0.10404281	     54.83626367	      7.40059204	      0.95707335	      7.43294608	      7.51892855	     -7.50756816	      1.08364852	      1.79944538	     -9.67000443	      4.64056182	      0.56486998	      0.08099308	      5.38923386	     18.55181085	     -7.50756816	     -7.35005692	     -1.56116384	     -3.67916297	     -6.07142988	    -14.05939157	     13.73769664	     30.90079482	     90.00000001	      0.00000000	      0.00000000	      1.95537446	    -16.21739676	     20.12423368	     29.31164810	     90.00000001	      0.00000000	      0.00000000
      2.27000000	      1.30261377	      0.00023624	     -0.32894862	      0.15584938	      0.98536189	      0.27971466	     12.90095552	     -7.53623464	     -1.47673923	     53.73934547	      6.99048065	      0.93792852	      8.36926088	      8.55987243	     -7.50722997	     -0.29312048	      1.34239998	     -8.58262887	      4.20251054	      0.52914205	      0.07334765	      6.08037286	     19.01821779	     -7.50722997	     -7.77625471	     -0.76917455	     -4.15093103	     -6.78687518	    -13.70468446	     12.25359687	     30.70228261	     90.00000001	      0.00000000	      0.00000000	      3.03204304	    -16.71989061	     23.01776669	     29.70461801	     90.00000001	      0.00000000	      0.00000000
      2.28000000	      1.28409767	      0.01447383	     -0.13035432	      0.16500862	      0.98539628	      0.27826075	     14.07060428	     -7.52248309	     -1.77674117	     52.86497770	      7.09156522	      0.92266792	      8.70026569	      8.44751201	     -7.50715229	     -0.86026583	      1.50611185	     -8.58735448	      4.20356233	      0.42850688	      0.07336600	      6.44564788	     19.07827414	     -7.50715229	     -7.71167609	     -0.62450250	     -4.32444821	     -7.32092188	    -13.61203548	     12.20615468	     30.52785754	     90.00000001	      0.00000000	      0.00000000	      3.86760910	    -16.76539551	     23.09288781	     30.11322493	     90.00000001	      0.00000000	      0.00000000
      2.29000000	      1.37060274	     -0.20843498	      0.27207490	      0.17424149	      0.98545247	      0.27684321	     14.91594733	     -7.25565231	     -2.20455470	     51.60206880	      7.29763081	      0.90062600	      9.25811987	      8.17671938	     -7.50701256	     -1.68725284	      1.39124483	     -7.99461726	      3.90157366	      0.32865958	      0.06809531	      7.05639418	     19.54580413	     -7.50701256	     -7.76732168	     -0.21763341	     -4.64983585	     -7.84510990	    -13.47359072	     11.83331162	     30.36523338	     90.00000001	      0.00000000	      0.00000000	      4.75258101	    -16.88337824	     23.59019428	     30.47153558	     90.00000001	      0.00000000	      0.00000000
      2.30000000	      1.36494391	     -0.09654246	      0.44074163	      0.18343432	      0.98522147	      0.27553220	     15.93575556	     -7.31337395	     -2.65106222	     50.25662591	      7.26139198	      0.87714359	      9.36504967	      8.01628574	     -7.50694751	     -2.22954255	      1.61872946	     -8.16156081	      4.00179942	      0.27110643	      0.06984458	      7.31270951	     19.49163705	     -7.50694751	     -7.70778686	     -0.19633927	     -4.75883765	     -8.38758962	    -13.35887909	     11.77980674	     30.22849360	     90.00000001	      0.00000000	      0.00000000	      5.56078283	    -16.94686815	     23.60039480	     30.94582765	     90.00000001	      0.00000000	      0.00000000
